<svg width="60" height="60" viewBox="0 0 60 60" fill="none" xmlns="http://www.w3.org/2000/svg">
<g opacity="0.9" clip-path="url(#clip0_39_26)">
<path fill-rule="evenodd" clip-rule="evenodd" d="M30 1.84376C14.4498 1.84376 1.84382 14.4497 1.84382 29.9999C1.84382 45.5502 14.4498 58.1561 30 58.1561C45.5502 58.1561 58.1562 45.5502 58.1562 29.9999C58.1562 14.4497 45.5502 1.84376 30 1.84376ZM0 29.9999C0 13.4314 13.4315 -6.10352e-05 30 -6.10352e-05C46.5685 -6.10352e-05 60 13.4314 60 29.9999C60 46.5685 46.5685 59.9999 30 59.9999C13.4315 59.9999 0 46.5685 0 29.9999Z" fill="#6F6E6F"/>
<path d="M12.2207 30.0022C12.2207 20.1823 20.1809 12.2223 30.0011 12.2219C39.8207 12.2223 47.7805 20.182 47.7809 30.0022C47.7805 39.8218 39.8207 47.7816 30.0011 47.7822C20.1809 47.7816 12.2207 39.8218 12.2207 30.0022ZM18.1379 18.1395C15.1012 21.1771 13.2248 25.3679 13.2244 30.0022C13.2248 34.6364 15.1012 38.8274 18.1379 41.8648C21.1755 44.9011 25.3663 46.7779 30.0011 46.7783C34.6348 46.7779 38.8256 44.9011 41.8632 41.8648C44.8998 38.8274 46.7764 34.6364 46.7768 30.0022C46.7764 25.3679 44.8998 21.1771 41.8632 18.1395C38.8256 15.1027 34.6348 13.2263 30.0011 13.2259C25.3663 13.2263 21.1755 15.1027 18.1379 18.1395Z" fill="#6F6E6F"/>
<path d="M12.2275 30.0012H30.0092V12.2219H30.0079C20.1881 12.2223 12.2282 20.1816 12.2275 30.0012Z" fill="#6F6E6F"/>
<path d="M47.7768 29.9922H29.9951V47.7832H29.9963C39.8159 47.7828 47.7761 39.8118 47.7768 29.9922Z" fill="#6F6E6F"/>
<path d="M50.6031 13.5597L46.6408 16.181L48.5157 12.5341C48.0284 11.9582 47.2904 11.3528 47.2904 11.3528L43.6732 13.169L46.3275 9.27708C45.8869 8.90709 45.3769 8.59938 44.8879 8.22836L41.1728 14.0231C41.1728 14.0231 41.8763 14.4369 42.7372 15.2318L46.582 13.2429L44.5681 17.0271C45.0211 17.5054 45.4243 18.085 45.8438 18.6023L51.6957 14.9829C51.6955 14.9829 51.3374 14.4199 50.6031 13.5597ZM30.4123 9.60856L32.1952 5.66872L32.3565 10.6634C33.0745 10.6954 34.1339 10.9656 34.1339 10.9656L33.8139 3.89128C32.4694 3.69583 31.3965 3.64236 31.3965 3.64236L29.6786 7.91573L28.0012 3.67678C28.0012 3.67678 26.8932 3.78475 25.5485 3.97999L25.2266 11.1088C25.2266 11.1088 26.2881 10.8017 27.0061 10.77L27.1577 5.69884L28.9452 9.60836H30.4123V9.60856ZM15.3222 11.9248L15.3224 11.9176C15.4089 11.6 15.4058 11.2646 15.3135 10.9487C15.2212 10.6327 15.0433 10.3484 14.7994 10.1273C14.076 9.46741 12.9984 9.44508 11.8485 10.5928C11.8485 10.5928 9.7289 12.7181 8.29297 14.7995L13.4497 19.5023L17.3361 15.1454C18.1816 14.2114 18.2146 12.8885 17.4412 12.1827C16.8628 11.6562 16.0245 11.5814 15.3222 11.9248ZM10.348 14.4525C12.1748 12.1895 12.9062 11.571 12.9062 11.571C13.3852 11.1566 13.7394 11.1203 14.0268 11.3823C14.3145 11.6441 14.2782 12.1534 13.9463 12.5193L11.3644 15.3789L10.348 14.4525ZM16.1532 14.2624L13.4415 17.2729L12.4223 16.3436L15.1342 13.3333C15.4656 12.9672 15.9631 12.8779 16.2446 13.1346C16.526 13.3913 16.4849 13.8965 16.1532 14.2624Z" fill="#6F6E6F"/>
</g>
<defs>
<clipPath id="clip0_39_26">
<rect width="60" height="60" fill="white"/>
</clipPath>
</defs>
</svg>
