<svg width="18" height="30" viewBox="0 0 18 30" fill="none" xmlns="http://www.w3.org/2000/svg">
<path d="M7.52555 21.1225C5.20314 20.8803 3.10915 20.3083 1.31636 18.9062C1.09391 18.7317 0.864239 18.5635 0.661241 18.3687C-0.123458 17.6151 -0.202524 16.7519 0.418395 15.8624C0.94958 15.1013 1.84127 14.8976 2.7681 15.3347C2.94757 15.4194 3.11856 15.5251 3.28234 15.6387C6.62351 17.9345 11.2134 17.9978 14.5671 15.7419C14.8994 15.4872 15.2546 15.2795 15.6662 15.1734C16.4666 14.9679 17.213 15.2619 17.6426 15.9622C18.1333 16.762 18.127 17.5426 17.5224 18.1635C16.5949 19.1154 15.4795 19.8041 14.2402 20.2848C13.0683 20.7391 11.7848 20.9678 10.5144 21.1197C10.7061 21.3283 10.7964 21.4309 10.9163 21.5514C12.6413 23.2846 14.3739 25.0105 16.0932 26.7491C16.679 27.3414 16.8014 28.0759 16.4788 28.7649C16.1262 29.5179 15.3368 30.0134 14.5627 29.9603C14.0723 29.9264 13.6899 29.6823 13.3501 29.34C12.0483 28.0301 10.7221 26.7444 9.44667 25.4096C9.0755 25.0215 8.89697 25.0949 8.56941 25.4319C7.2598 26.7801 5.92886 28.1076 4.59007 29.4276C3.98892 30.0203 3.27356 30.1269 2.5764 29.7884C1.83531 29.4291 1.36374 28.6727 1.40013 27.9125C1.42523 27.3982 1.67812 27.0054 2.03109 26.6531C3.73823 24.9484 5.44066 23.2394 7.14371 21.532C7.25635 21.4184 7.36146 21.2979 7.52555 21.1225Z" fill="#F36A1D"/>
<path d="M8.94025 15.1847C4.79713 15.1706 1.3998 11.7359 1.42396 7.58622C1.4478 3.39071 4.84733 0.00969166 9.03124 0.0213006C13.2236 0.0325957 16.5886 3.46224 16.5676 7.70137C16.5463 11.8426 13.1254 15.1992 8.94025 15.1847ZM12.7056 7.59626C12.6984 5.53584 11.0575 3.89554 9.00112 3.89365C6.92752 3.89146 5.27184 5.56157 5.28784 7.64082C5.30321 9.6934 6.95826 11.3221 9.02026 11.3146C11.076 11.3073 12.7125 9.65637 12.7056 7.59626Z" fill="#F36A1D"/>
</svg>
