<svg width="44" height="44" viewBox="0 0 44 44" fill="none" xmlns="http://www.w3.org/2000/svg">
<path d="M34.9522 15.1203C35.1419 14.4985 34.9522 14.0425 34.0553 14.0425H31.0842C30.3282 14.0425 29.9827 14.437 29.793 14.8702C29.793 14.8702 28.2824 18.506 26.1417 20.8634C25.4507 21.5494 25.1351 21.766 24.7584 21.766C24.5701 21.766 24.2964 21.5494 24.2964 20.9276V15.1203C24.2964 14.3742 24.0783 14.0425 23.4483 14.0425H18.7795C18.308 14.0425 18.0235 14.3875 18.0235 14.7165C18.0235 15.4225 19.0938 15.5856 19.2036 17.5753V21.8917C19.2036 22.8371 19.0315 23.0095 18.6521 23.0095C17.6455 23.0095 15.1959 19.3604 13.7422 15.1831C13.459 14.3715 13.1731 14.0439 12.4144 14.0439H9.44462C8.59514 14.0439 8.42578 14.4383 8.42578 14.8716C8.42578 15.6498 9.43243 19.5008 13.1149 24.5941C15.5699 28.072 19.0261 29.9574 22.1747 29.9574C24.062 29.9574 24.2951 29.5389 24.2951 28.8168V26.188C24.2951 25.3509 24.4752 25.1824 25.0727 25.1824C25.5117 25.1824 26.2677 25.4017 28.0304 27.0772C30.0436 29.0642 30.3769 29.9561 31.5082 29.9561H34.478C35.3262 29.9561 35.7502 29.5376 35.5064 28.7112C35.2395 27.8888 34.2775 26.6921 33.0013 25.276C32.3076 24.4684 31.2711 23.5992 30.9555 23.1647C30.5151 22.6044 30.6425 22.357 30.9555 21.8596C30.9568 21.8609 34.5756 16.8305 34.9522 15.1203Z" fill="#727272"/>
</svg>
